<?xml version="1.0" encoding="UTF-8"?>
<svg width="140px" height="274px" viewBox="0 0 140 274" version="1.1" xmlns="http://www.w3.org/2000/svg" xmlns:xlink="http://www.w3.org/1999/xlink">
    <title>Group</title>
    <defs>
        <rect id="path-1" x="0" y="0" width="140" height="274"></rect>
        <path d="M39,0 L0,43.5 L39,87 M7.45491803,43.5 L105.5,43.5" id="path-3"></path>
        <path d="M39,30 L0,73.5 L39,117 M7.45491803,73.5 L105.5,73.5" id="path-4"></path>
        <path d="M39,60 L0,103.5 L39,147 M7.45491803,103.5 L105.5,103.5" id="path-5"></path>
        <path d="M39,90 L0,133.5 L39,177 M7.45491803,133.5 L105.5,133.5" id="path-6"></path>
        <path d="M39,120 L0,163.5 L39,207 M7.45491803,163.5 L105.5,163.5" id="path-7"></path>
        <path d="M39,150 L0,193.5 L39,237 M7.45491803,193.5 L105.5,193.5" id="path-8"></path>
        <path d="M39,180 L0,223.5 L39,267 M7.45491803,223.5 L105.5,223.5" id="path-9"></path>
        <path d="M39,210 L0,253.5 L39,297 M7.45491803,253.5 L105.5,253.5" id="path-10"></path>
        <path d="M39,240 L0,283.5 L39,327 M7.45491803,283.5 L105.5,283.5" id="path-11"></path>
        <path d="M39,270 L0,313.5 L39,357 M7.45491803,313.5 L105.5,313.5" id="path-12"></path>
    </defs>
    <g id="Page-1" stroke="none" stroke-width="1" fill="none" fill-rule="evenodd">
        <g id="Group">
            <mask id="mask-2" fill="white">
                <use xlink:href="#path-1"></use>
            </mask>
            <use id="Mask" fill="#FFB673" xlink:href="#path-1"></use>
            <g mask="url(#mask-2)" stroke-linecap="round" stroke-linejoin="round">
                <g transform="translate(17.000000, -28.000000)">
                    <g id="Combined-Shape-Copy-18" transform="translate(53.000000, 43.500000) scale(-1, 1) translate(-53.000000, -43.500000) ">
                        <use stroke="#FFB673" stroke-width="35" xlink:href="#path-3"></use>
                        <use stroke="#FCC798" stroke-width="15" xlink:href="#path-3"></use>
                    </g>
                    <g id="Combined-Shape-Copy-13" transform="translate(53.000000, 73.500000) scale(-1, 1) translate(-53.000000, -73.500000) ">
                        <use stroke="#FFB673" stroke-width="35" xlink:href="#path-4"></use>
                        <use stroke="#FCC798" stroke-width="15" xlink:href="#path-4"></use>
                    </g>
                    <g id="Combined-Shape-Copy-14" transform="translate(53.000000, 103.500000) scale(-1, 1) translate(-53.000000, -103.500000) ">
                        <use stroke="#FFB673" stroke-width="35" xlink:href="#path-5"></use>
                        <use stroke="#FCC798" stroke-width="15" xlink:href="#path-5"></use>
                    </g>
                    <g id="Combined-Shape-Copy-19" transform="translate(53.000000, 133.500000) scale(-1, 1) translate(-53.000000, -133.500000) ">
                        <use stroke="#FFB673" stroke-width="35" xlink:href="#path-6"></use>
                        <use stroke="#FCC798" stroke-width="15" xlink:href="#path-6"></use>
                    </g>
                    <g id="Combined-Shape-Copy-20" transform="translate(53.000000, 163.500000) scale(-1, 1) translate(-53.000000, -163.500000) ">
                        <use stroke="#FFB673" stroke-width="35" xlink:href="#path-7"></use>
                        <use stroke="#FCC798" stroke-width="15" xlink:href="#path-7"></use>
                    </g>
                    <g id="Combined-Shape-Copy-21" transform="translate(53.000000, 193.500000) scale(-1, 1) translate(-53.000000, -193.500000) ">
                        <use stroke="#FFB673" stroke-width="35" xlink:href="#path-8"></use>
                        <use stroke="#FCC798" stroke-width="15" xlink:href="#path-8"></use>
                    </g>
                    <g id="Combined-Shape-Copy-22" transform="translate(53.000000, 223.500000) scale(-1, 1) translate(-53.000000, -223.500000) ">
                        <use stroke="#FFB673" stroke-width="35" xlink:href="#path-9"></use>
                        <use stroke="#FCC798" stroke-width="15" xlink:href="#path-9"></use>
                    </g>
                    <g id="Combined-Shape-Copy-23" transform="translate(53.000000, 253.500000) scale(-1, 1) translate(-53.000000, -253.500000) ">
                        <use stroke="#FFB673" stroke-width="35" xlink:href="#path-10"></use>
                        <use stroke="#FCC798" stroke-width="15" xlink:href="#path-10"></use>
                    </g>
                    <g id="Combined-Shape-Copy-24" transform="translate(53.000000, 283.500000) scale(-1, 1) translate(-53.000000, -283.500000) ">
                        <use stroke="#FFB673" stroke-width="35" xlink:href="#path-11"></use>
                        <use stroke="#FCC798" stroke-width="15" xlink:href="#path-11"></use>
                    </g>
                    <g id="Combined-Shape-Copy-25" transform="translate(53.000000, 313.500000) scale(-1, 1) translate(-53.000000, -313.500000) ">
                        <use stroke="#FFB673" stroke-width="35" xlink:href="#path-12"></use>
                        <use stroke="#FCC798" stroke-width="15" xlink:href="#path-12"></use>
                    </g>
                </g>
            </g>
        </g>
    </g>
</svg>